<?xml version="1.0" encoding="UTF-8"?>
<svg id="Layer_2" data-name="Layer 2" xmlns="http://www.w3.org/2000/svg" xmlns:xlink="http://www.w3.org/1999/xlink" viewBox="0 0 622.32 190.03">
  <defs>
    <style>
      .cls-1 {
        fill: url(#linear-gradient-8);
      }

      .cls-2 {
        fill: url(#linear-gradient-7);
      }

      .cls-3 {
        fill: url(#linear-gradient-5);
      }

      .cls-4 {
        fill: url(#linear-gradient-6);
      }

      .cls-5 {
        fill: url(#linear-gradient-9);
      }

      .cls-6 {
        fill: url(#linear-gradient-4);
      }

      .cls-7 {
        fill: url(#linear-gradient-3);
      }

      .cls-8 {
        fill: url(#linear-gradient-2);
      }

      .cls-9 {
        fill: url(#linear-gradient);
      }

      .cls-10 {
        fill: url(#linear-gradient-40);
      }

      .cls-11 {
        fill: url(#linear-gradient-10);
      }

      .cls-12 {
        fill: url(#linear-gradient-11);
      }

      .cls-13 {
        fill: url(#linear-gradient-12);
      }

      .cls-14 {
        fill: url(#linear-gradient-13);
      }

      .cls-15 {
        fill: url(#linear-gradient-19);
      }

      .cls-16 {
        fill: url(#linear-gradient-14);
      }

      .cls-17 {
        fill: url(#linear-gradient-21);
      }

      .cls-18 {
        fill: url(#linear-gradient-20);
      }

      .cls-19 {
        fill: url(#linear-gradient-22);
      }

      .cls-20 {
        fill: url(#linear-gradient-23);
      }

      .cls-21 {
        fill: url(#linear-gradient-28);
      }

      .cls-22 {
        fill: url(#linear-gradient-25);
      }

      .cls-23 {
        fill: url(#linear-gradient-32);
      }

      .cls-24 {
        fill: url(#linear-gradient-31);
      }

      .cls-25 {
        fill: url(#linear-gradient-33);
      }

      .cls-26 {
        fill: url(#linear-gradient-30);
      }

      .cls-27 {
        fill: url(#linear-gradient-15);
      }

      .cls-28 {
        fill: url(#linear-gradient-16);
      }

      .cls-29 {
        fill: url(#linear-gradient-17);
      }

      .cls-30 {
        fill: url(#linear-gradient-18);
      }

      .cls-31 {
        fill: url(#linear-gradient-35);
      }

      .cls-32 {
        fill: url(#linear-gradient-34);
      }

      .cls-33 {
        fill: url(#linear-gradient-36);
      }

      .cls-34 {
        fill: url(#linear-gradient-38);
      }

      .cls-35 {
        fill: url(#linear-gradient-27);
      }

      .cls-36 {
        fill: url(#linear-gradient-24);
      }

      .cls-37 {
        fill: url(#linear-gradient-26);
      }

      .cls-38 {
        fill: url(#linear-gradient-29);
      }

      .cls-39 {
        fill: url(#linear-gradient-37);
      }

      .cls-40 {
        fill: url(#linear-gradient-39);
      }
    </style>
    <linearGradient id="linear-gradient" x1="-11.44" y1="97.79" x2="608.51" y2="97.79" gradientUnits="userSpaceOnUse">
      <stop offset="0" stop-color="#369799"/>
      <stop offset="1" stop-color="#24769c"/>
    </linearGradient>
    <linearGradient id="linear-gradient-2" x1="-11.44" y1="99.07" x2="608.51" y2="99.07" xlink:href="#linear-gradient"/>
    <linearGradient id="linear-gradient-3" x1="-11.44" y1="97.79" x2="608.51" y2="97.79" xlink:href="#linear-gradient"/>
    <linearGradient id="linear-gradient-4" x1="-11.44" y1="35.88" x2="608.51" y2="35.88" xlink:href="#linear-gradient"/>
    <linearGradient id="linear-gradient-5" x1="-11.44" y1="85.94" x2="608.51" y2="85.94" xlink:href="#linear-gradient"/>
    <linearGradient id="linear-gradient-6" x1="-11.44" y1="79.77" x2="608.51" y2="79.77" xlink:href="#linear-gradient"/>
    <linearGradient id="linear-gradient-7" x1="-11.44" y1="80.95" x2="608.51" y2="80.95" xlink:href="#linear-gradient"/>
    <linearGradient id="linear-gradient-8" x1="-11.44" y1="87.5" x2="608.51" y2="87.5" xlink:href="#linear-gradient"/>
    <linearGradient id="linear-gradient-9" x1="-11.44" y1="116.87" x2="608.51" y2="116.87" xlink:href="#linear-gradient"/>
    <linearGradient id="linear-gradient-10" x1="-11.44" y1="175.62" x2="608.51" y2="175.62" xlink:href="#linear-gradient"/>
    <linearGradient id="linear-gradient-11" x1="-11.44" y1="177.68" x2="608.51" y2="177.68" xlink:href="#linear-gradient"/>
    <linearGradient id="linear-gradient-12" x1="-11.44" y1="177.68" x2="608.51" y2="177.68" xlink:href="#linear-gradient"/>
    <linearGradient id="linear-gradient-13" x1="-11.44" y1="175.29" x2="608.51" y2="175.29" xlink:href="#linear-gradient"/>
    <linearGradient id="linear-gradient-14" x1="-11.44" y1="180.25" x2="608.51" y2="180.25" xlink:href="#linear-gradient"/>
    <linearGradient id="linear-gradient-15" x1="-11.44" y1="177.68" x2="608.51" y2="177.68" xlink:href="#linear-gradient"/>
    <linearGradient id="linear-gradient-16" x1="-11.44" y1="176.22" x2="608.51" y2="176.22" xlink:href="#linear-gradient"/>
    <linearGradient id="linear-gradient-17" x1="-11.44" y1="177.68" x2="608.51" y2="177.68" xlink:href="#linear-gradient"/>
    <linearGradient id="linear-gradient-18" x1="-11.44" y1="175.62" x2="608.51" y2="175.62" xlink:href="#linear-gradient"/>
    <linearGradient id="linear-gradient-19" x1="-11.44" y1="177.68" x2="608.51" y2="177.68" xlink:href="#linear-gradient"/>
    <linearGradient id="linear-gradient-20" x1="-11.44" y1="177.86" x2="608.51" y2="177.86" xlink:href="#linear-gradient"/>
    <linearGradient id="linear-gradient-21" x1="-11.44" y1="177.51" x2="608.51" y2="177.51" xlink:href="#linear-gradient"/>
    <linearGradient id="linear-gradient-22" x1="-11.44" y1="175.62" x2="608.51" y2="175.62" xlink:href="#linear-gradient"/>
    <linearGradient id="linear-gradient-23" x1="-11.44" y1="177.68" x2="608.51" y2="177.68" xlink:href="#linear-gradient"/>
    <linearGradient id="linear-gradient-24" x1="-11.44" y1="177.68" x2="608.51" y2="177.68" xlink:href="#linear-gradient"/>
    <linearGradient id="linear-gradient-25" x1="-11.44" y1="175.12" x2="608.51" y2="175.12" xlink:href="#linear-gradient"/>
    <linearGradient id="linear-gradient-26" x1="-11.44" y1="175.29" x2="608.51" y2="175.29" xlink:href="#linear-gradient"/>
    <linearGradient id="linear-gradient-27" x1="-11.44" y1="176.22" x2="608.51" y2="176.22" xlink:href="#linear-gradient"/>
    <linearGradient id="linear-gradient-28" x1="-11.44" y1="180.39" x2="608.51" y2="180.39" xlink:href="#linear-gradient"/>
    <linearGradient id="linear-gradient-29" x1="-11.44" y1="184.57" x2="608.51" y2="184.57" xlink:href="#linear-gradient"/>
    <linearGradient id="linear-gradient-30" x1="-11.44" y1="175.62" x2="608.51" y2="175.62" xlink:href="#linear-gradient"/>
    <linearGradient id="linear-gradient-31" y1="177.68" x2="608.51" y2="177.68" xlink:href="#linear-gradient"/>
    <linearGradient id="linear-gradient-32" x1="-11.44" y1="177.68" x2="608.51" y2="177.68" xlink:href="#linear-gradient"/>
    <linearGradient id="linear-gradient-33" x1="-11.44" y1="176.22" x2="608.51" y2="176.22" xlink:href="#linear-gradient"/>
    <linearGradient id="linear-gradient-34" x1="-11.44" y1="177.68" x2="608.51" y2="177.68" xlink:href="#linear-gradient"/>
    <linearGradient id="linear-gradient-35" x1="-11.44" y1="177.51" x2="608.51" y2="177.51" xlink:href="#linear-gradient"/>
    <linearGradient id="linear-gradient-36" x1="-11.44" y1="174.8" x2="608.51" y2="174.8" xlink:href="#linear-gradient"/>
    <linearGradient id="linear-gradient-37" x1="-11.44" y1="177.86" x2="608.51" y2="177.86" xlink:href="#linear-gradient"/>
    <linearGradient id="linear-gradient-38" x1="-11.44" y1="175.12" x2="608.51" y2="175.12" xlink:href="#linear-gradient"/>
    <linearGradient id="linear-gradient-39" x1="-11.44" y1="175.12" x2="608.51" y2="175.12" xlink:href="#linear-gradient"/>
    <linearGradient id="linear-gradient-40" x1="-11.44" y1="180.39" x2="608.51" y2="180.39" xlink:href="#linear-gradient"/>
  </defs>
  <g id="Layer_1-2" data-name="Layer 1">
    <g>
      <path class="cls-9" d="M181.11,97.7c0,28.19-16.55,50.93-48.93,50.93s-48.93-22.73-48.93-50.93,16.37-50.75,48.93-50.75,48.93,22.55,48.93,50.75M159.82,97.7c0-21.83-10.18-36.2-27.65-36.2s-27.83,14.37-27.83,36.2,10.19,36.38,27.83,36.38,27.65-14.55,27.65-36.38"/>
      <path class="cls-8" d="M278.41,146.08h-19.83v-16.55l-6.73,12c-7.64,5.46-14.73,7.09-24.37,7.09-20.01,0-31.65-11.28-33.83-24.55-.73-4.91-.91-9.28-.91-17.1v-57.47h19.83v53.47c0,3.09.18,8.37.73,13.28,1.45,10.55,8.37,17.46,20.73,17.46,14.01,0,24.55-10.73,24.55-38.74v-45.47h19.83v96.58Z"/>
      <path class="cls-7" d="M353.35,132.08l-4.91,10.37c-6.55,4.55-14.92,6.18-24.01,6.18-17.1,0-31.1-9.82-31.1-27.83,0-21.46,17.1-33.1,53.66-33.1h6.18v-2.36c0-3.64,0-6.91-.36-10.55-.55-7.82-5.46-13.28-16.92-13.28s-17.64,6.55-18.73,18.55h-20.01c1.27-21.1,17.1-33.1,39.1-33.1,24.92,0,34.74,10.55,36.38,26.92.36,4,.54,9.09.54,13.64v34.01c0,7.28.36,13.82,1.82,24.55h-19.83l-1.82-14.01ZM353.17,109.89v-8.91c-23.46-1.82-38.74,3.45-38.74,18.19,0,10.18,6.73,14.91,17.28,14.91,12.55,0,21.46-8.55,21.46-24.19"/>
      <path class="cls-6" d="M107.55,20.19c.14,6.84-3.33,12-9.09,16.91l-3.23,2.75-37.69,31.92-.26-28.74L107.57,0l-.02,20.19Z"/>
      <path class="cls-3" d="M57.54,71.84v74.25h-19.86v-62.51L7.07,59.68C1.96,55.5.02,49.41.02,42.47c0-.22-.02-16.68-.02-16.68l57.54,46.05Z"/>
      <path class="cls-4" d="M408.24,116.6c0,3.27,0,6.18.18,9.09.36,5.46,2.91,7.28,11.46,6.55v14.01c-4,.54-8.55.91-13.1.91-10.55,0-17.64-3.82-18.37-16.19-.18-3.64-.18-8-.18-13.82V12.38h20.01v104.22Z"/>
      <path class="cls-2" d="M456.62,27.29c0,6.73-5.09,11.64-11.82,11.64s-11.64-4.91-11.64-11.64,4.91-11.46,11.64-11.46,11.82,4.91,11.82,11.46M434.8,49.48h20.01v96.58h-20.01V49.48Z"/>
      <path class="cls-1" d="M502.46,114.78c0,3.27,0,5.46.18,8,.73,9.46,4.37,11.46,17.46,10.18v13.82c-5.09.73-9.82,1.09-14.73,1.09-15.1,0-21.65-5.64-22.55-18.37-.18-3.28-.18-7.46-.18-12.92v-52.38h-13.64v-14.01h13.64v-23.1h19.83v23.1h18.92v14.01h-18.92v50.56Z"/>
      <path class="cls-5" d="M583.03,152.25c-8.91,22.92-19.28,32.01-36.74,32.01-4,0-6.55,0-9.46-.54v-14.73c2.36.18,4.36.18,6.36.18,9.1,0,15.28-3.82,19.64-15.1l1.46-3.45-38.92-101.13h22.37l26.56,81.67,26.37-81.67h21.64l-39.29,102.77Z"/>
      <path class="cls-11" d="M134.07,184.53l-7.9-14.69c.08,2.04.1,4.34.1,6.17v8.52h-2.84v-17.82h4l7.98,14.8c-.05-2.01-.08-4.39-.08-6.23v-8.57h2.79l.03,17.82h-4.08Z"/>
      <path class="cls-12" d="M148.92,182.54l-.7,1.47c-.93.65-2.12.88-3.41.88-2.43,0-4.42-1.4-4.42-3.95,0-3.05,2.43-4.7,7.62-4.7h.88v-.34c0-.52,0-.98-.05-1.5-.08-1.11-.78-1.88-2.4-1.88s-2.51.93-2.66,2.63h-2.84c.18-3,2.43-4.7,5.55-4.7,3.54,0,4.93,1.5,5.17,3.82.05.57.08,1.29.08,1.94v4.83c0,1.03.05,1.96.26,3.48h-2.82l-.26-1.99ZM148.89,179.39v-1.27c-3.33-.26-5.5.49-5.5,2.58,0,1.45.96,2.12,2.46,2.12,1.78,0,3.05-1.21,3.05-3.44"/>
      <polygon class="cls-13" points="161.62 184.53 158.32 184.53 153.07 170.82 156.2 170.82 160.04 182.44 163.84 170.82 166.86 170.82 161.62 184.53"/>
      <path class="cls-14" d="M171.3,167.67c0,.96-.72,1.65-1.68,1.65s-1.65-.7-1.65-1.65.7-1.63,1.65-1.63,1.68.7,1.68,1.63M168.2,170.82h2.84v13.71h-2.84v-13.71Z"/>
      <path class="cls-16" d="M186.77,181.12c0,.85,0,1.91-.03,2.66-.15,4.16-2.74,6.25-6.87,6.25s-6.04-1.65-6.33-4.6l-.03-.25h2.79l.03.23c.18,1.47,1.45,2.48,3.57,2.48,2.48,0,3.9-1.34,4-3.8.03-.59.03-1.09.03-1.58v-.28l-1.03,1.5c-.77.62-2.12,1.03-3.51,1.03-3.95,0-6.25-2.89-6.25-6.92,0-5.01,3.1-7.39,6.64-7.39,1.14,0,2.56.31,3.25.85l.9,1.37v-1.86h2.84v10.31ZM183.93,177.69v-.59c0-3.33-2.01-4.57-3.85-4.57-2.25,0-3.95,1.65-3.95,5.06,0,2.97,1.37,5.11,3.82,5.11,2.14,0,3.98-1.34,3.98-5.01"/>
      <path class="cls-27" d="M197.54,182.54l-.7,1.47c-.93.65-2.12.88-3.41.88-2.43,0-4.42-1.4-4.42-3.95,0-3.05,2.43-4.7,7.62-4.7h.88v-.34c0-.52,0-.98-.05-1.5-.08-1.11-.77-1.88-2.4-1.88s-2.51.93-2.66,2.63h-2.84c.18-3,2.43-4.7,5.55-4.7,3.54,0,4.93,1.5,5.17,3.82.05.57.08,1.29.08,1.94v4.83c0,1.03.05,1.96.26,3.48h-2.82l-.25-1.99ZM197.51,179.39v-1.27c-3.33-.26-5.5.49-5.5,2.58,0,1.45.96,2.12,2.46,2.12,1.78,0,3.05-1.21,3.05-3.44"/>
      <path class="cls-28" d="M206.83,180.09c0,.47,0,.77.03,1.14.1,1.34.62,1.63,2.48,1.45v1.96c-.72.1-1.4.15-2.09.15-2.14,0-3.07-.8-3.2-2.61-.03-.47-.03-1.06-.03-1.83v-7.44h-1.94v-1.99h1.94v-3.28h2.81v3.28h2.68v1.99h-2.68v7.18Z"/>
      <path class="cls-29" d="M223.03,178.46h-9.84c.23,3.28,1.73,4.36,3.59,4.36,1.65,0,2.94-1.01,3.23-2.74h2.87c-.6,3.26-3.2,4.8-6.2,4.8-3.67,0-6.43-2.32-6.43-7.18,0-4.34,2.76-7.26,6.72-7.26s6.12,3,6.12,6.87c0,.26,0,.65-.05,1.14M213.21,176.48h6.95c-.21-2.53-1.32-3.95-3.31-3.95s-3.33,1.32-3.64,3.95"/>
      <polygon class="cls-30" points="237.87 184.53 235.06 184.53 235.06 177.56 228.76 166.71 231.99 166.71 236.58 174.95 241.02 166.71 244.18 166.71 237.87 177.56 237.87 184.53"/>
      <path class="cls-15" d="M255.92,177.66c0,4-2.35,7.23-6.95,7.23s-6.95-3.23-6.95-7.23,2.32-7.21,6.95-7.21,6.95,3.2,6.95,7.21M252.9,177.66c0-3.1-1.45-5.14-3.93-5.14s-3.95,2.04-3.95,5.14,1.45,5.17,3.95,5.17,3.93-2.07,3.93-5.17"/>
      <path class="cls-18" d="M269.87,184.53h-2.81v-2.35l-.96,1.7c-1.09.77-2.09,1.01-3.46,1.01-2.84,0-4.49-1.6-4.8-3.49-.1-.7-.13-1.32-.13-2.43v-8.16h2.81v7.59c0,.44.03,1.19.1,1.88.21,1.5,1.19,2.48,2.94,2.48,1.99,0,3.49-1.52,3.49-5.5v-6.46h2.81v13.71Z"/>
      <path class="cls-17" d="M280.07,170.64v2.22c-2.61-.18-4.24,1.16-4.24,4.54v7.13h-2.84v-13.71h2.84v2.32l1.16-1.88c.62-.49,1.42-.77,2.12-.77.39,0,.67.05.96.16"/>
      <path class="cls-19" d="M300.57,184.53h-3.13c-.46-1.16-.7-2.27-.9-4.23-.23-1.89-.93-3.07-2.56-3.18-.44-.03-.88-.03-1.32-.03h-2.76v7.44h-2.84v-17.82h6.15c.96,0,1.6,0,2.45.1,2.58.34,4.52,1.7,4.52,4.75,0,2.32-1.42,3.69-3.3,4.26,1.6.7,2.27,2.25,2.45,4.11.21,2.25.51,3.61,1.24,4.6M292.88,174.9c.72,0,1.16,0,1.6-.05,1.55-.16,2.71-1.03,2.71-2.92s-.96-2.66-2.48-2.87c-.47-.08-.93-.1-1.65-.1h-3.15v5.94h2.97Z"/>
      <path class="cls-20" d="M314.03,178.46h-9.84c.23,3.28,1.73,4.36,3.59,4.36,1.65,0,2.94-1.01,3.23-2.74h2.87c-.6,3.26-3.2,4.8-6.2,4.8-3.67,0-6.43-2.32-6.43-7.18,0-4.34,2.76-7.26,6.71-7.26s6.12,3,6.12,6.87c0,.26,0,.65-.05,1.14M304.21,176.48h6.95c-.21-2.53-1.32-3.95-3.31-3.95s-3.33,1.32-3.64,3.95"/>
      <path class="cls-36" d="M323.92,182.54l-.7,1.47c-.93.65-2.12.88-3.41.88-2.43,0-4.42-1.4-4.42-3.95,0-3.05,2.43-4.7,7.62-4.7h.88v-.34c0-.52,0-.98-.05-1.5-.08-1.11-.77-1.88-2.4-1.88s-2.51.93-2.66,2.63h-2.84c.18-3,2.43-4.7,5.55-4.7,3.54,0,4.93,1.5,5.17,3.82.05.57.08,1.29.08,1.94v4.83c0,1.03.05,1.96.26,3.48h-2.82l-.25-1.99ZM323.89,179.39v-1.27c-3.33-.26-5.5.49-5.5,2.58,0,1.45.96,2.12,2.46,2.12,1.78,0,3.05-1.21,3.05-3.44"/>
      <path class="cls-22" d="M332.56,180.35c0,.46,0,.88.03,1.29.05.77.41,1.03,1.63.93v1.99c-.57.08-1.21.13-1.86.13-1.5,0-2.5-.54-2.61-2.3-.03-.52-.03-1.14-.03-1.96v-14.88h2.84v14.8Z"/>
      <path class="cls-37" d="M339.18,167.67c0,.96-.72,1.65-1.68,1.65s-1.65-.7-1.65-1.65.7-1.63,1.65-1.63,1.68.7,1.68,1.63M336.08,170.82h2.84v13.71h-2.84v-13.71Z"/>
      <path class="cls-35" d="M345.42,180.09c0,.47,0,.77.03,1.14.1,1.34.62,1.63,2.48,1.45v1.96c-.72.1-1.4.15-2.09.15-2.14,0-3.07-.8-3.2-2.61-.03-.47-.03-1.06-.03-1.83v-7.44h-1.94v-1.99h1.94v-3.28h2.81v3.28h2.68v1.99h-2.68v7.18Z"/>
      <path class="cls-21" d="M356.61,185.41c-1.27,3.25-2.74,4.55-5.22,4.55-.57,0-.93,0-1.34-.08v-2.09c.34.03.62.03.9.03,1.29,0,2.17-.54,2.79-2.14l.21-.49-5.52-14.36h3.18l3.77,11.6,3.74-11.6h3.07l-5.58,14.59Z"/>
      <polygon class="cls-38" points="363.45 187.66 360.97 187.66 363.01 181.48 365.87 181.48 365.87 181.74 363.45 187.66"/>
      <path class="cls-26" d="M392.89,184.53h-2.81v-8.75c0-2.04,0-4.49.05-6.38-.52,1.88-1.27,4.34-1.94,6.35l-2.87,8.78h-3.28l-2.89-8.81c-.65-1.99-1.4-4.42-1.88-6.3.05,1.91.05,4.31.05,6.35v8.75h-2.84v-17.82h4.57l4.7,15.29,4.7-15.29h4.44v17.82Z"/>
      <path class="cls-24" d="M403.65,182.54l-.7,1.47c-.93.65-2.12.88-3.41.88-2.43,0-4.42-1.4-4.42-3.95,0-3.05,2.43-4.7,7.62-4.7h.88v-.34c0-.52,0-.98-.05-1.5-.08-1.11-.77-1.88-2.4-1.88s-2.51.93-2.66,2.63h-2.84c.18-3,2.43-4.7,5.55-4.7,3.54,0,4.93,1.5,5.17,3.82.05.57.08,1.29.08,1.94v4.83c0,1.03.05,1.96.26,3.48h-2.82l-.26-1.99ZM403.63,179.39v-1.27c-3.33-.26-5.5.49-5.5,2.58,0,1.45.96,2.12,2.46,2.12,1.78,0,3.05-1.21,3.05-3.44"/>
      <path class="cls-23" d="M419.2,174.75h-2.89c-.29-1.45-1.14-2.3-2.53-2.3s-1.99.75-1.99,1.78c0,1.24,1.01,1.76,3.05,2.3,3,.78,4.57,1.96,4.57,4.39,0,2.66-2.35,3.98-5.35,3.98s-5.3-1.37-5.68-4.47h2.87c.34,1.76,1.5,2.45,2.92,2.45,1.32,0,2.38-.57,2.38-1.76s-.93-1.83-3.25-2.45c-2.51-.65-4.37-1.7-4.37-4.11,0-2.56,2.01-4.11,5.06-4.11s4.91,1.78,5.22,4.29"/>
      <path class="cls-25" d="M424.72,180.09c0,.47,0,.77.03,1.14.1,1.34.62,1.63,2.48,1.45v1.96c-.72.1-1.39.15-2.09.15-2.14,0-3.07-.8-3.2-2.61-.03-.47-.03-1.06-.03-1.83v-7.44h-1.94v-1.99h1.94v-3.28h2.81v3.28h2.69v1.99h-2.69v7.18Z"/>
      <path class="cls-32" d="M440.92,178.46h-9.84c.23,3.28,1.73,4.36,3.59,4.36,1.65,0,2.94-1.01,3.23-2.74h2.87c-.6,3.26-3.2,4.8-6.2,4.8-3.67,0-6.43-2.32-6.43-7.18,0-4.34,2.76-7.26,6.71-7.26s6.12,3,6.12,6.87c0,.26,0,.65-.05,1.14M431.1,176.48h6.95c-.21-2.53-1.32-3.95-3.31-3.95s-3.33,1.32-3.64,3.95"/>
      <path class="cls-31" d="M450.24,170.64v2.22c-2.61-.18-4.24,1.16-4.24,4.54v7.13h-2.84v-13.71h2.84v2.32l1.16-1.88c.62-.49,1.42-.77,2.12-.77.39,0,.67.05.96.16"/>
      <path class="cls-33" d="M454.81,169.89v1.03h2.81v1.99h-2.81v11.62h-2.81v-11.62h-1.47v-1.99h1.47v-.88c0-.49,0-1.16.05-1.63.23-2.12,1.65-3.36,4.24-3.36.57,0,1.11.05,1.57.16v2.12c-1.68-.31-2.81.1-2.97,1.24-.05.36-.08.93-.08,1.32"/>
      <path class="cls-39" d="M471.26,184.53h-2.81v-2.35l-.96,1.7c-1.09.77-2.09,1.01-3.46,1.01-2.84,0-4.49-1.6-4.8-3.49-.1-.7-.13-1.32-.13-2.43v-8.16h2.81v7.59c0,.44.03,1.19.1,1.88.21,1.5,1.19,2.48,2.94,2.48,1.99,0,3.49-1.52,3.49-5.5v-6.46h2.81v13.71Z"/>
      <path class="cls-34" d="M477.12,180.35c0,.46,0,.88.03,1.29.05.77.42,1.03,1.63.93v1.99c-.57.08-1.21.13-1.86.13-1.5,0-2.5-.54-2.61-2.3-.03-.52-.03-1.14-.03-1.96v-14.88h2.84v14.8Z"/>
      <path class="cls-40" d="M483.37,180.35c0,.46,0,.88.03,1.29.05.77.42,1.03,1.63.93v1.99c-.57.08-1.21.13-1.86.13-1.5,0-2.5-.54-2.61-2.3-.03-.52-.03-1.14-.03-1.96v-14.88h2.84v14.8Z"/>
      <path class="cls-10" d="M493.31,185.41c-1.27,3.25-2.74,4.55-5.22,4.55-.57,0-.93,0-1.34-.08v-2.09c.34.03.62.03.9.03,1.29,0,2.17-.54,2.79-2.14l.21-.49-5.52-14.36h3.18l3.77,11.6,3.74-11.6h3.07l-5.58,14.59Z"/>
    </g>
  </g>
</svg>